<?xml version="1.0" standalone="no"?>
<!DOCTYPE svg PUBLIC "-//W3C//DTD SVG 1.1//EN" "http://www.w3.org/Graphics/SVG/1.1/DTD/svg11.dtd">
<svg xmlns="http://www.w3.org/2000/svg" version="1.1" viewBox="0.00 0.00 500.00 500.00" width="500" height="500">
<g stroke-width="2.00" fill="none" stroke-linecap="butt">
<path stroke="#942625" vector-effect="non-scaling-stroke" d="   M 237.09 410.37   Q 230.14 410.26 223.00 408.65   Q 222.50 408.54 222.22 408.37   Q 221.67 408.04 221.51 408.02   Q 216.89 407.52 214.24 406.26   A 4.68 4.63 -26.9 0 0 213.09 405.89   Q 209.51 405.22 207.09 404.03   Q 205.02 403.02 203.71 402.86   A 1.55 1.21 52.0 0 1 203.35 402.77   Q 173.39 390.80 151.47 366.95   Q 148.33 363.53 145.77 360.08   Q 142.09 355.14 140.46 352.77   Q 127.66 334.09 121.73 312.30   Q 119.76 305.03 118.08 297.76   Q 116.15 289.38 115.90 277.50   Q 115.64 265.02 116.47 259.27   Q 117.34 253.24 117.28 252.24   A 1.78 1.77 52.4 0 1 117.37 251.52   Q 118.21 248.95 118.08 245.74   A 1.10 1.09 -23.7 0 1 118.40 244.92   Q 118.72 244.59 118.77 244.31   Q 120.02 236.58 120.59 233.59   A 3.83 3.63 -27.5 0 1 120.93 232.61   Q 121.77 231.04 121.88 229.43   A 5.40 5.32 -34.0 0 1 122.14 228.14   Q 129.97 204.32 139.54 182.07   Q 140.39 180.09 141.59 177.04   Q 142.34 175.11 143.65 172.01   Q 145.69 167.19 146.12 165.68   Q 146.40 164.71 146.79 164.25   A 0.40 0.23 -29.9 0 0 146.86 164.13   L 153.64 143.27   A 0.65 0.59 51.8 0 0 153.66 143.00   Q 153.50 141.99 154.40 140.59   A 0.81 0.55 79.5 0 0 154.48 140.41   L 156.33 132.82   A 1.25 1.22 72.6 0 1 156.60 132.29   Q 157.15 131.69 157.09 130.83   Q 157.03 129.95 157.29 129.03   Q 157.88 126.89 158.22 124.81   A 0.09 0.08 23.2 0 1 158.35 124.77   Q 158.38 124.80 158.42 124.81   A 0.17 0.11 -72.9 0 0 158.59 124.67   Q 159.22 122.46 159.96 117.36   Q 160.33 114.80 161.62 110.67   C 162.20 108.82 161.70 107.07 162.59 105.61   A 1.58 1.35 -27.9 0 0 162.78 105.13   Q 165.28 90.76 165.77 85.76   Q 166.59 77.33 164.98 67.26   A 0.22 0.22 0.0 0 0 164.82 67.08   Q 164.56 66.99 164.48 66.89   A 0.31 0.30 20.7 0 1 164.39 66.70   C 163.99 61.46 160.37 56.40 156.52 52.99   Q 152.10 49.07 144.10 45.89   Q 135.21 42.36 132.74 42.07   Q 131.92 41.97 121.55 40.68   A 0.16 0.16 0.0 0 1 121.53 40.36   Q 121.80 40.29 122.11 40.38   Q 109.49 39.59 100.08 39.59   A 1.49 1.48 2.5 0 0 98.60 40.94   L 95.64 74.28   A 3.21 2.02 83.5 0 1 95.58 74.71   Q 94.70 78.91 94.72 83.92   A 3.59 3.56 -34.9 0 1 94.49 85.18   Q 94.00 86.43 94.14 88.02   A 1.79 1.78 -87.7 0 0 95.62 89.63   Q 103.07 90.90 108.56 96.22   A 2.04 1.95 -79.9 0 1 109.03 96.93   Q 109.28 97.56 110.53 99.64   Q 113.06 103.86 113.11 109.51   Q 113.14 112.87 112.75 116.74   A 5.50 5.35 56.8 0 1 112.56 117.72   Q 109.39 128.40 108.67 129.94   Q 102.37 143.37 100.43 147.15   Q 89.09 169.25 78.67 192.14   Q 67.04 217.70 62.29 245.67   Q 61.70 249.15 61.74 251.30   Q 61.76 252.93 61.18 256.94   C 60.09 264.46 60.86 275.58 61.21 284.86   C 61.30 287.22 61.89 289.10 62.07 291.30   Q 62.25 293.54 62.63 296.15   Q 66.71 324.87 77.52 353.26   Q 81.49 363.70 89.65 379.11   Q 93.56 386.51 96.17 389.63   A 4.28 4.13 16.6 0 1 96.92 390.96   Q 97.41 392.39 99.82 395.39   A 8.05 6.58 83.9 0 1 100.43 396.28   Q 104.34 402.86 109.05 407.44   Q 109.56 407.93 109.87 408.78   A 2.41 2.36 14.2 0 0 110.29 409.47   Q 124.99 425.84 133.82 432.59   Q 143.74 440.17 147.06 442.19   Q 169.34 455.69 194.03 462.69   C 205.62 465.98 218.37 467.49 231.02 469.15   Q 240.34 470.36 257.81 469.72   C 260.46 469.62 262.57 469.08 265.02 468.90   Q 268.26 468.66 270.44 468.37   Q 311.06 462.91 346.56 442.83   Q 350.56 440.57 365.17 430.36   A 0.15 0.15 0.0 0 0 365.13 430.10   Q 365.10 430.09 365.01 430.04   A 0.09 0.09 0.0 0 1 365.05 429.87   Q 365.89 429.82 366.28 429.52   Q 378.68 419.75 389.91 407.59   Q 393.29 403.92 394.04 402.88   Q 396.40 399.64 397.90 397.95   Q 400.66 394.81 403.53 390.46   Q 406.25 386.32 409.18 382.15   Q 411.24 379.21 413.44 374.39   A 3.93 3.64 78.8 0 1 413.97 373.53   Q 416.19 370.76 418.32 365.92   C 418.73 364.99 418.55 363.80 419.45 363.17   A 1.30 1.26 83.6 0 0 419.90 362.59   Q 420.62 360.65 421.73 358.67   Q 422.96 356.48 423.61 354.80   Q 430.45 337.22 431.02 334.35   Q 431.99 329.41 432.79 328.30   A 1.68 1.59 -24.0 0 0 433.08 327.60   Q 433.97 322.04 435.78 316.08   C 436.23 314.59 435.78 313.24 436.50 311.79   Q 437.04 310.71 438.32 301.52   Q 438.37 301.14 438.58 300.83   Q 438.81 300.49 438.86 300.15   Q 439.98 292.90 440.43 285.30   A 1.41 1.40 56.0 0 1 440.50 284.93   Q 441.38 282.22 441.11 278.25   Q 441.06 277.48 441.42 276.68   Q 441.81 275.82 441.81 275.21   Q 441.78 267.43 441.91 265.70   C 442.40 259.08 441.58 254.83 441.88 248.58   Q 441.99 246.43 441.17 240.99   Q 440.26 234.93 439.70 228.75   Q 439.62 227.94 439.05 225.89   Q 438.61 224.32 438.44 223.07   Q 437.44 215.67 435.21 206.98   Q 430.67 189.36 422.72 172.20   Q 414.01 153.40 409.45 143.98   Q 409.30 143.66 408.97 143.41   A 1.00 0.99 -81.8 0 1 408.65 142.98   Q 406.68 137.86 403.79 131.31   C 402.15 127.59 401.10 123.84 399.99 121.08   Q 398.30 116.90 398.06 113.21   Q 397.81 109.53 397.92 106.36   Q 398.05 102.55 399.37 99.75   C 402.23 93.71 407.53 90.49 413.71 88.32   A 1.44 1.43 5.9 0 0 414.48 87.70   Q 414.94 86.92 414.94 84.51   Q 414.93 75.27 413.98 62.96   Q 413.77 60.14 413.91 56.55   Q 414.04 53.42 413.25 49.77   Q 413.01 48.67 412.59 41.39   A 1.08 1.05 -73.2 0 0 412.17 40.58   Q 411.11 39.77 409.29 40.10   Q 401.67 41.49 393.25 43.16   Q 387.85 44.22 378.75 47.34   Q 368.84 50.75 364.65 52.75   Q 356.44 56.68 349.25 63.72   Q 344.84 68.05 343.22 71.96   Q 341.14 76.96 340.87 81.94   Q 339.75 102.33 346.03 121.44   Q 349.06 130.66 355.23 144.38   A 1.10 0.03 51.8 0 0 355.81 145.16   Q 356.13 145.56 355.90 146.00   Q 359.21 153.24 361.23 158.07   A 0.39 0.38 7.2 0 0 361.35 158.22   Q 361.75 158.49 361.85 159.35   Q 361.96 160.27 362.29 161.09   Q 368.62 176.97 369.65 180.43   Q 371.37 186.24 372.10 187.93   Q 373.08 190.20 374.59 195.42   Q 377.73 206.28 380.09 215.14   Q 384.58 231.97 386.48 249.32   Q 387.65 260.03 387.06 267.71   C 386.01 281.55 382.54 295.36 378.72 308.24   Q 378.24 308.51 378.15 309.25   Q 377.90 311.40 376.85 313.66   Q 376.22 315.02 375.16 317.73   Q 372.63 324.14 369.74 329.98   Q 367.31 334.88 363.85 341.32   Q 362.25 344.30 360.36 347.01   Q 357.72 350.83 356.77 352.82   A 0.94 0.87 -90.0 0 1 356.38 353.24   Q 355.97 353.45 355.65 353.90   Q 345.87 367.74 333.26 378.83   A 0.21 0.21 0.0 0 1 333.14 378.89   L 332.74 378.94   A 0.10 0.06 -58.3 0 0 332.68 378.97   Q 330.45 381.05 324.66 385.65   Q 322.53 387.34 321.56 387.73   A 2.66 0.23 -35.9 0 0 320.24 388.52   Q 315.49 391.71 312.96 393.17   Q 308.55 395.71 298.24 400.42   Q 290.70 403.87 279.79 406.67   Q 274.51 408.03 259.73 410.33   Q 250.11 411.82 237.08 410.78   A 0.09 0.08 -78.6 0 1 237.01 410.67   L 237.10 410.39   A 0.01 0.01 0.0 0 0 237.09 410.37"/>
<path stroke="#942625" vector-effect="non-scaling-stroke" d="   M 145.80 122.14   A 8.35 8.35 0.0 0 0 137.45 113.79   A 8.35 8.35 0.0 0 0 129.10 122.14   A 8.35 8.35 0.0 0 0 137.45 130.49   A 8.35 8.35 0.0 0 0 145.80 122.14"/>
<path stroke="#942625" vector-effect="non-scaling-stroke" d="   M 379.97 123.78   A 8.31 8.31 0.0 0 0 371.66 115.47   A 8.31 8.31 0.0 0 0 363.35 123.78   A 8.31 8.31 0.0 0 0 371.66 132.09   A 8.31 8.31 0.0 0 0 379.97 123.78"/>
<path stroke="#942625" vector-effect="non-scaling-stroke" d="   M 88.95 266.86   C 81.93 276.41 94.91 286.14 101.85 277.49   C 105.27 273.24 104.04 267.96 99.44 265.28   Q 94.77 262.59 89.85 265.99   A 4.06 3.89 -88.1 0 0 88.95 266.86"/>
<path stroke="#942625" vector-effect="non-scaling-stroke" d="   M 409.7681 266.5237   A 8.49 8.37 -91.7 0 0 401.6537 275.2583   A 8.49 8.37 -91.7 0 0 410.2719 283.4963   A 8.49 8.37 -91.7 0 0 418.3863 274.7617   A 8.49 8.37 -91.7 0 0 409.7681 266.5237"/>
<path stroke="#942625" vector-effect="non-scaling-stroke" d="   M 134.97 389.67   C 143.64 381.80 132.98 369.83 124.56 376.85   C 120.42 380.29 120.57 385.65 124.50 389.14   Q 128.50 392.67 133.93 390.34   A 4.01 3.85 -76.6 0 0 134.97 389.67"/>
<path stroke="#942625" vector-effect="non-scaling-stroke" d="   M 361.84 379.74   C 358.27 390.90 373.50 395.94 377.28 385.64   C 379.14 380.59 376.33 376.02 371.18 374.96   Q 365.95 373.90 362.41 378.64   A 4.01 3.85 73.4 0 0 361.84 379.74"/>
<path stroke="#942625" vector-effect="non-scaling-stroke" d="   M 253.99 437.31   A 8.30 8.30 0.0 0 0 245.69 429.01   A 8.30 8.30 0.0 0 0 237.39 437.31   A 8.30 8.30 0.0 0 0 245.69 445.61   A 8.30 8.30 0.0 0 0 253.99 437.31"/>
</g>
<path fill="#454544" d="   M 424.05 92.74   Q 424.05 94.93 421.21 95.75   Q 416.36 97.15 413.31 98.48   C 404.42 102.34 406.32 112.09 408.81 119.45   Q 411.24 126.65 418.57 142.21   C 427.54 161.25 433.72 173.35 439.05 188.86   Q 450.36 221.76 451.07 255.25   C 452.29 312.08 435.18 370.80 396.94 413.52   Q 374.75 438.30 343.18 454.96   Q 303.49 475.90 256.77 478.69   Q 227.79 480.41 193.01 471.81   C 186.70 470.25 177.32 466.89 172.86 465.14   Q 139.48 452.02 114.66 427.59   C 83.66 397.08 65.14 356.34 56.50 313.88   C 50.94 286.59 49.36 260.29 55.16 234.14   C 60.20 211.42 68.60 190.74 79.05 169.80   Q 87.36 153.15 95.97 136.00   Q 102.46 123.05 103.85 112.75   Q 105.38 101.30 95.07 98.72   Q 94.12 98.48 87.70 97.85   A 2.68 2.55 55.9 0 1 87.15 97.73   Q 83.98 96.68 84.34 93.06   Q 89.27 43.34 90.28 34.61   Q 90.79 30.26 95.53 30.28   C 123.27 30.39 167.83 32.29 174.17 67.84   Q 176.25 79.51 174.30 91.78   Q 169.50 122.12 160.63 151.68   C 158.38 159.16 153.65 171.73 149.62 181.16   C 139.08 205.83 128.24 231.67 125.67 258.57   C 122.43 292.49 131.34 326.71 151.94 353.55   C 175.56 384.31 216.22 405.30 256.24 401.51   Q 270.73 400.13 283.19 396.41   C 331.17 382.08 361.02 340.75 373.49 294.01   C 380.06 269.37 378.71 246.52 372.35 221.17   Q 366.56 198.10 357.49 173.26   C 353.44 162.16 346.82 147.61 341.42 134.86   Q 330.03 108.00 332.02 78.97   Q 332.91 66.08 342.62 57.06   Q 349.13 51.01 356.23 47.07   C 373.12 37.67 395.33 32.64 415.30 30.32   Q 419.36 29.85 420.27 34.08   Q 421.28 38.75 421.47 40.87   Q 424.12 71.01 424.05 92.74   Z   M 237.09 410.37   Q 230.14 410.26 223.00 408.65   Q 222.50 408.54 222.22 408.37   Q 221.67 408.04 221.51 408.02   Q 216.89 407.52 214.24 406.26   A 4.68 4.63 -26.9 0 0 213.09 405.89   Q 209.51 405.22 207.09 404.03   Q 205.02 403.02 203.71 402.86   A 1.55 1.21 52.0 0 1 203.35 402.77   Q 173.39 390.80 151.47 366.95   Q 148.33 363.53 145.77 360.08   Q 142.09 355.14 140.46 352.77   Q 127.66 334.09 121.73 312.30   Q 119.76 305.03 118.08 297.76   Q 116.15 289.38 115.90 277.50   Q 115.64 265.02 116.47 259.27   Q 117.34 253.24 117.28 252.24   A 1.78 1.77 52.4 0 1 117.37 251.52   Q 118.21 248.95 118.08 245.74   A 1.10 1.09 -23.7 0 1 118.40 244.92   Q 118.72 244.59 118.77 244.31   Q 120.02 236.58 120.59 233.59   A 3.83 3.63 -27.5 0 1 120.93 232.61   Q 121.77 231.04 121.88 229.43   A 5.40 5.32 -34.0 0 1 122.14 228.14   Q 129.97 204.32 139.54 182.07   Q 140.39 180.09 141.59 177.04   Q 142.34 175.11 143.65 172.01   Q 145.69 167.19 146.12 165.68   Q 146.40 164.71 146.79 164.25   A 0.40 0.23 -29.9 0 0 146.86 164.13   L 153.64 143.27   A 0.65 0.59 51.8 0 0 153.66 143.00   Q 153.50 141.99 154.40 140.59   A 0.81 0.55 79.5 0 0 154.48 140.41   L 156.33 132.82   A 1.25 1.22 72.6 0 1 156.60 132.29   Q 157.15 131.69 157.09 130.83   Q 157.03 129.95 157.29 129.03   Q 157.88 126.89 158.22 124.81   A 0.09 0.08 23.2 0 1 158.35 124.77   Q 158.38 124.80 158.42 124.81   A 0.17 0.11 -72.9 0 0 158.59 124.67   Q 159.22 122.46 159.96 117.36   Q 160.33 114.80 161.62 110.67   C 162.20 108.82 161.70 107.07 162.59 105.61   A 1.58 1.35 -27.9 0 0 162.78 105.13   Q 165.28 90.76 165.77 85.76   Q 166.59 77.33 164.98 67.26   A 0.22 0.22 0.0 0 0 164.82 67.08   Q 164.56 66.99 164.48 66.89   A 0.31 0.30 20.7 0 1 164.39 66.70   C 163.99 61.46 160.37 56.40 156.52 52.99   Q 152.10 49.07 144.10 45.89   Q 135.21 42.36 132.74 42.07   Q 131.92 41.97 121.55 40.68   A 0.16 0.16 0.0 0 1 121.53 40.36   Q 121.80 40.29 122.11 40.38   Q 109.49 39.59 100.08 39.59   A 1.49 1.48 2.5 0 0 98.60 40.94   L 95.64 74.28   A 3.21 2.02 83.5 0 1 95.58 74.71   Q 94.70 78.91 94.72 83.92   A 3.59 3.56 -34.9 0 1 94.49 85.18   Q 94.00 86.43 94.14 88.02   A 1.79 1.78 -87.7 0 0 95.62 89.63   Q 103.07 90.90 108.56 96.22   A 2.04 1.95 -79.9 0 1 109.03 96.93   Q 109.28 97.56 110.53 99.64   Q 113.06 103.86 113.11 109.51   Q 113.14 112.87 112.75 116.74   A 5.50 5.35 56.8 0 1 112.56 117.72   Q 109.39 128.40 108.67 129.94   Q 102.37 143.37 100.43 147.15   Q 89.09 169.25 78.67 192.14   Q 67.04 217.70 62.29 245.67   Q 61.70 249.15 61.74 251.30   Q 61.76 252.93 61.18 256.94   C 60.09 264.46 60.86 275.58 61.21 284.86   C 61.30 287.22 61.89 289.10 62.07 291.30   Q 62.25 293.54 62.63 296.15   Q 66.71 324.87 77.52 353.26   Q 81.49 363.70 89.65 379.11   Q 93.56 386.51 96.17 389.63   A 4.28 4.13 16.6 0 1 96.92 390.96   Q 97.41 392.39 99.82 395.39   A 8.05 6.58 83.9 0 1 100.43 396.28   Q 104.34 402.86 109.05 407.44   Q 109.56 407.93 109.87 408.78   A 2.41 2.36 14.2 0 0 110.29 409.47   Q 124.99 425.84 133.82 432.59   Q 143.74 440.17 147.06 442.19   Q 169.34 455.69 194.03 462.69   C 205.62 465.98 218.37 467.49 231.02 469.15   Q 240.34 470.36 257.81 469.72   C 260.46 469.62 262.57 469.08 265.02 468.90   Q 268.26 468.66 270.44 468.37   Q 311.06 462.91 346.56 442.83   Q 350.56 440.57 365.17 430.36   A 0.15 0.15 0.0 0 0 365.13 430.10   Q 365.10 430.09 365.01 430.04   A 0.09 0.09 0.0 0 1 365.05 429.87   Q 365.89 429.82 366.28 429.52   Q 378.68 419.75 389.91 407.59   Q 393.29 403.92 394.04 402.88   Q 396.40 399.64 397.90 397.95   Q 400.66 394.81 403.53 390.46   Q 406.25 386.32 409.18 382.15   Q 411.24 379.21 413.44 374.39   A 3.93 3.64 78.8 0 1 413.97 373.53   Q 416.19 370.76 418.32 365.92   C 418.73 364.99 418.55 363.80 419.45 363.17   A 1.30 1.26 83.6 0 0 419.90 362.59   Q 420.62 360.65 421.73 358.67   Q 422.96 356.48 423.61 354.80   Q 430.45 337.22 431.02 334.35   Q 431.99 329.41 432.79 328.30   A 1.68 1.59 -24.0 0 0 433.08 327.60   Q 433.97 322.04 435.78 316.08   C 436.23 314.59 435.78 313.24 436.50 311.79   Q 437.04 310.71 438.32 301.52   Q 438.37 301.14 438.58 300.83   Q 438.81 300.49 438.86 300.15   Q 439.98 292.90 440.43 285.30   A 1.41 1.40 56.0 0 1 440.50 284.93   Q 441.38 282.22 441.11 278.25   Q 441.06 277.48 441.42 276.68   Q 441.81 275.82 441.81 275.21   Q 441.78 267.43 441.91 265.70   C 442.40 259.08 441.58 254.83 441.88 248.58   Q 441.99 246.43 441.17 240.99   Q 440.26 234.93 439.70 228.75   Q 439.62 227.94 439.05 225.89   Q 438.61 224.32 438.44 223.07   Q 437.44 215.67 435.21 206.98   Q 430.67 189.36 422.72 172.20   Q 414.01 153.40 409.45 143.98   Q 409.30 143.66 408.97 143.41   A 1.00 0.99 -81.8 0 1 408.65 142.98   Q 406.68 137.86 403.79 131.31   C 402.15 127.59 401.10 123.84 399.99 121.08   Q 398.30 116.90 398.06 113.21   Q 397.81 109.53 397.92 106.36   Q 398.05 102.55 399.37 99.75   C 402.23 93.71 407.53 90.49 413.71 88.32   A 1.44 1.43 5.9 0 0 414.48 87.70   Q 414.94 86.92 414.94 84.51   Q 414.93 75.27 413.98 62.96   Q 413.77 60.14 413.91 56.55   Q 414.04 53.42 413.25 49.77   Q 413.01 48.67 412.59 41.39   A 1.08 1.05 -73.2 0 0 412.17 40.58   Q 411.11 39.77 409.29 40.10   Q 401.67 41.49 393.25 43.16   Q 387.85 44.22 378.75 47.34   Q 368.84 50.75 364.65 52.75   Q 356.44 56.68 349.25 63.72   Q 344.84 68.05 343.22 71.96   Q 341.14 76.96 340.87 81.94   Q 339.75 102.33 346.03 121.44   Q 349.06 130.66 355.23 144.38   A 1.10 0.03 51.8 0 0 355.81 145.16   Q 356.13 145.56 355.90 146.00   Q 359.21 153.24 361.23 158.07   A 0.39 0.38 7.2 0 0 361.35 158.22   Q 361.75 158.49 361.85 159.35   Q 361.96 160.27 362.29 161.09   Q 368.62 176.97 369.65 180.43   Q 371.37 186.24 372.10 187.93   Q 373.08 190.20 374.59 195.42   Q 377.73 206.28 380.09 215.14   Q 384.58 231.97 386.48 249.32   Q 387.65 260.03 387.06 267.71   C 386.01 281.55 382.54 295.36 378.72 308.24   Q 378.24 308.51 378.15 309.25   Q 377.90 311.40 376.85 313.66   Q 376.22 315.02 375.16 317.73   Q 372.63 324.14 369.74 329.98   Q 367.31 334.88 363.85 341.32   Q 362.25 344.30 360.36 347.01   Q 357.72 350.83 356.77 352.82   A 0.94 0.87 -90.0 0 1 356.38 353.24   Q 355.97 353.45 355.65 353.90   Q 345.87 367.74 333.26 378.83   A 0.21 0.21 0.0 0 1 333.14 378.89   L 332.74 378.94   A 0.10 0.06 -58.3 0 0 332.68 378.97   Q 330.45 381.05 324.66 385.65   Q 322.53 387.34 321.56 387.73   A 2.66 0.23 -35.9 0 0 320.24 388.52   Q 315.49 391.71 312.96 393.17   Q 308.55 395.71 298.24 400.42   Q 290.70 403.87 279.79 406.67   Q 274.51 408.03 259.73 410.33   Q 250.11 411.82 237.08 410.78   A 0.09 0.08 -78.6 0 1 237.01 410.67   L 237.10 410.39   A 0.01 0.01 0.0 0 0 237.09 410.37   Z"/>
<path fill="#e20706" d="   M 237.10 410.39   L 237.01 410.67   A 0.09 0.08 -78.6 0 0 237.08 410.78   Q 250.11 411.82 259.73 410.33   Q 274.51 408.03 279.79 406.67   Q 290.70 403.87 298.24 400.42   Q 308.55 395.71 312.96 393.17   Q 315.49 391.71 320.24 388.52   A 2.66 0.23 -35.9 0 1 321.56 387.73   Q 322.53 387.34 324.66 385.65   Q 330.45 381.05 332.68 378.97   A 0.10 0.06 -58.3 0 1 332.74 378.94   L 333.14 378.89   A 0.21 0.21 0.0 0 0 333.26 378.83   Q 345.87 367.74 355.65 353.90   Q 355.97 353.45 356.38 353.24   A 0.94 0.87 90.0 0 0 356.77 352.82   Q 357.72 350.83 360.36 347.01   Q 362.25 344.30 363.85 341.32   Q 367.31 334.88 369.74 329.98   Q 372.63 324.14 375.16 317.73   Q 376.22 315.02 376.85 313.66   Q 377.90 311.40 378.15 309.25   Q 378.24 308.51 378.72 308.24   C 382.54 295.36 386.01 281.55 387.06 267.71   Q 387.65 260.03 386.48 249.32   Q 384.58 231.97 380.09 215.14   Q 377.73 206.28 374.59 195.42   Q 373.08 190.20 372.10 187.93   Q 371.37 186.24 369.65 180.43   Q 368.62 176.97 362.29 161.09   Q 361.96 160.27 361.85 159.35   Q 361.75 158.49 361.35 158.22   A 0.39 0.38 7.2 0 1 361.23 158.07   Q 359.21 153.24 355.90 146.00   Q 356.13 145.56 355.81 145.16   A 1.10 0.03 51.8 0 1 355.23 144.38   Q 349.06 130.66 346.03 121.44   Q 339.75 102.33 340.87 81.94   Q 341.14 76.96 343.22 71.96   Q 344.84 68.05 349.25 63.72   Q 356.44 56.68 364.65 52.75   Q 368.84 50.75 378.75 47.34   Q 387.85 44.22 393.25 43.16   Q 401.67 41.49 409.29 40.10   Q 411.11 39.77 412.17 40.58   A 1.08 1.05 -73.2 0 1 412.59 41.39   Q 413.01 48.67 413.25 49.77   Q 414.04 53.42 413.91 56.55   Q 413.77 60.14 413.98 62.96   Q 414.93 75.27 414.94 84.51   Q 414.94 86.92 414.48 87.70   A 1.44 1.43 5.9 0 1 413.71 88.32   C 407.53 90.49 402.23 93.71 399.37 99.75   Q 398.05 102.55 397.92 106.36   Q 397.81 109.53 398.06 113.21   Q 398.30 116.90 399.99 121.08   C 401.10 123.84 402.15 127.59 403.79 131.31   Q 406.68 137.86 408.65 142.98   A 1.00 0.99 -81.8 0 0 408.97 143.41   Q 409.30 143.66 409.45 143.98   Q 414.01 153.40 422.72 172.20   Q 430.67 189.36 435.21 206.98   Q 437.44 215.67 438.44 223.07   Q 438.61 224.32 439.05 225.89   Q 439.62 227.94 439.70 228.75   Q 440.26 234.93 441.17 240.99   Q 441.99 246.43 441.88 248.58   C 441.58 254.83 442.40 259.08 441.91 265.70   Q 441.78 267.43 441.81 275.21   Q 441.81 275.82 441.42 276.68   Q 441.06 277.48 441.11 278.25   Q 441.38 282.22 440.50 284.93   A 1.41 1.40 56.0 0 0 440.43 285.30   Q 439.98 292.90 438.86 300.15   Q 438.81 300.49 438.58 300.83   Q 438.37 301.14 438.32 301.52   Q 437.04 310.71 436.50 311.79   C 435.78 313.24 436.23 314.59 435.78 316.08   Q 433.97 322.04 433.08 327.60   A 1.68 1.59 -24.0 0 1 432.79 328.30   Q 431.99 329.41 431.02 334.35   Q 430.45 337.22 423.61 354.80   Q 422.96 356.48 421.73 358.67   Q 420.62 360.65 419.90 362.59   A 1.30 1.26 83.6 0 1 419.45 363.17   C 418.55 363.80 418.73 364.99 418.32 365.92   Q 416.19 370.76 413.97 373.53   A 3.93 3.64 78.8 0 0 413.44 374.39   Q 411.24 379.21 409.18 382.15   Q 406.25 386.32 403.53 390.46   Q 400.66 394.81 397.90 397.95   Q 396.40 399.64 394.04 402.88   Q 393.29 403.92 389.91 407.59   Q 378.68 419.75 366.28 429.52   Q 365.89 429.82 365.05 429.87   A 0.09 0.09 0.0 0 0 365.01 430.04   Q 365.10 430.09 365.13 430.10   A 0.15 0.15 0.0 0 1 365.17 430.36   Q 350.56 440.57 346.56 442.83   Q 311.06 462.91 270.44 468.37   Q 268.26 468.66 265.02 468.90   C 262.57 469.08 260.46 469.62 257.81 469.72   Q 240.34 470.36 231.02 469.15   C 218.37 467.49 205.62 465.98 194.03 462.69   Q 169.34 455.69 147.06 442.19   Q 143.74 440.17 133.82 432.59   Q 124.99 425.84 110.29 409.47   A 2.41 2.36 14.2 0 1 109.87 408.78   Q 109.56 407.93 109.05 407.44   Q 104.34 402.86 100.43 396.28   A 8.05 6.58 83.9 0 0 99.82 395.39   Q 97.41 392.39 96.92 390.96   A 4.28 4.13 16.6 0 0 96.17 389.63   Q 93.56 386.51 89.65 379.11   Q 81.49 363.70 77.52 353.26   Q 66.71 324.87 62.63 296.15   Q 62.25 293.54 62.07 291.30   C 61.89 289.10 61.30 287.22 61.21 284.86   C 60.86 275.58 60.09 264.46 61.18 256.94   Q 61.76 252.93 61.74 251.30   Q 61.70 249.15 62.29 245.67   Q 67.04 217.70 78.67 192.14   Q 89.09 169.25 100.43 147.15   Q 102.37 143.37 108.67 129.94   Q 109.39 128.40 112.56 117.72   A 5.50 5.35 56.8 0 0 112.75 116.74   Q 113.14 112.87 113.11 109.51   Q 113.06 103.86 110.53 99.64   Q 109.28 97.56 109.03 96.93   A 2.04 1.95 -79.9 0 0 108.56 96.22   Q 103.07 90.90 95.62 89.63   A 1.79 1.78 -87.7 0 1 94.14 88.02   Q 94.00 86.43 94.49 85.18   A 3.59 3.56 -34.9 0 0 94.72 83.92   Q 94.70 78.91 95.58 74.71   A 3.21 2.02 83.5 0 0 95.64 74.28   L 98.60 40.94   A 1.49 1.48 2.5 0 1 100.08 39.59   Q 109.49 39.59 122.11 40.38   Q 121.80 40.29 121.53 40.36   A 0.16 0.16 0.0 0 0 121.55 40.68   Q 131.92 41.97 132.74 42.07   Q 135.21 42.36 144.10 45.89   Q 152.10 49.07 156.52 52.99   C 160.37 56.40 163.99 61.46 164.39 66.70   A 0.31 0.30 20.7 0 0 164.48 66.89   Q 164.56 66.99 164.82 67.08   A 0.22 0.22 0.0 0 1 164.98 67.26   Q 166.59 77.33 165.77 85.76   Q 165.28 90.76 162.78 105.13   A 1.58 1.35 -27.9 0 1 162.59 105.61   C 161.70 107.07 162.20 108.82 161.62 110.67   Q 160.33 114.80 159.96 117.36   Q 159.22 122.46 158.59 124.67   A 0.17 0.11 -72.9 0 1 158.42 124.81   Q 158.38 124.80 158.35 124.77   A 0.09 0.08 23.2 0 0 158.22 124.81   Q 157.88 126.89 157.29 129.03   Q 157.03 129.95 157.09 130.83   Q 157.15 131.69 156.60 132.29   A 1.25 1.22 72.6 0 0 156.33 132.82   L 154.48 140.41   A 0.81 0.55 79.5 0 1 154.40 140.59   Q 153.50 141.99 153.66 143.00   A 0.65 0.59 51.8 0 1 153.64 143.27   L 146.86 164.13   A 0.40 0.23 -29.9 0 1 146.79 164.25   Q 146.40 164.71 146.12 165.68   Q 145.69 167.19 143.65 172.01   Q 142.34 175.11 141.59 177.04   Q 140.39 180.09 139.54 182.07   Q 129.97 204.32 122.14 228.14   A 5.40 5.32 -34.0 0 0 121.88 229.43   Q 121.77 231.04 120.93 232.61   A 3.83 3.63 -27.5 0 0 120.59 233.59   Q 120.02 236.58 118.77 244.31   Q 118.72 244.59 118.40 244.92   A 1.10 1.09 -23.7 0 0 118.08 245.74   Q 118.21 248.95 117.37 251.52   A 1.78 1.77 52.4 0 0 117.28 252.24   Q 117.34 253.24 116.47 259.27   Q 115.64 265.02 115.90 277.50   Q 116.15 289.38 118.08 297.76   Q 119.76 305.03 121.73 312.30   Q 127.66 334.09 140.46 352.77   Q 142.09 355.14 145.77 360.08   Q 148.33 363.53 151.47 366.95   Q 173.39 390.80 203.35 402.77   A 1.55 1.21 52.0 0 0 203.71 402.86   Q 205.02 403.02 207.09 404.03   Q 209.51 405.22 213.09 405.89   A 4.68 4.63 -26.9 0 1 214.24 406.26   Q 216.89 407.52 221.51 408.02   Q 221.67 408.04 222.22 408.37   Q 222.50 408.54 223.00 408.65   Q 230.14 410.26 237.09 410.37   A 0.01 0.01 0.0 0 1 237.10 410.39   Z   M 145.80 122.14   A 8.35 8.35 0.0 0 0 137.45 113.79   A 8.35 8.35 0.0 0 0 129.10 122.14   A 8.35 8.35 0.0 0 0 137.45 130.49   A 8.35 8.35 0.0 0 0 145.80 122.14   Z   M 379.97 123.78   A 8.31 8.31 0.0 0 0 371.66 115.47   A 8.31 8.31 0.0 0 0 363.35 123.78   A 8.31 8.31 0.0 0 0 371.66 132.09   A 8.31 8.31 0.0 0 0 379.97 123.78   Z   M 88.95 266.86   C 81.93 276.41 94.91 286.14 101.85 277.49   C 105.27 273.24 104.04 267.96 99.44 265.28   Q 94.77 262.59 89.85 265.99   A 4.06 3.89 -88.1 0 0 88.95 266.86   Z   M 409.7681 266.5237   A 8.49 8.37 -91.7 0 0 401.6537 275.2583   A 8.49 8.37 -91.7 0 0 410.2719 283.4963   A 8.49 8.37 -91.7 0 0 418.3863 274.7617   A 8.49 8.37 -91.7 0 0 409.7681 266.5237   Z   M 134.97 389.67   C 143.64 381.80 132.98 369.83 124.56 376.85   C 120.42 380.29 120.57 385.65 124.50 389.14   Q 128.50 392.67 133.93 390.34   A 4.01 3.85 -76.6 0 0 134.97 389.67   Z   M 361.84 379.74   C 358.27 390.90 373.50 395.94 377.28 385.64   C 379.14 380.59 376.33 376.02 371.18 374.96   Q 365.95 373.90 362.41 378.64   A 4.01 3.85 73.4 0 0 361.84 379.74   Z   M 253.99 437.31   A 8.30 8.30 0.0 0 0 245.69 429.01   A 8.30 8.30 0.0 0 0 237.39 437.31   A 8.30 8.30 0.0 0 0 245.69 445.61   A 8.30 8.30 0.0 0 0 253.99 437.31   Z"/>
<circle fill="#454544" cx="137.45" cy="122.14" r="8.35"/>
<circle fill="#454544" cx="371.66" cy="123.78" r="8.31"/>
<path fill="#454544" d="   M 88.95 266.86   A 4.06 3.89 -88.1 0 1 89.85 265.99   Q 94.77 262.59 99.44 265.28   C 104.04 267.96 105.27 273.24 101.85 277.49   C 94.91 286.14 81.93 276.41 88.95 266.86   Z"/>
<ellipse fill="#454544" cx="0.00" cy="0.00" transform="translate(410.02,275.01) rotate(-91.7)" rx="8.49" ry="8.37"/>
<path fill="#454544" d="   M 133.93 390.34   Q 128.50 392.67 124.50 389.14   C 120.57 385.65 120.42 380.29 124.56 376.85   C 132.98 369.83 143.64 381.80 134.97 389.67   A 4.01 3.85 -76.6 0 1 133.93 390.34   Z"/>
<path fill="#454544" d="   M 361.84 379.74   A 4.01 3.85 73.4 0 1 362.41 378.64   Q 365.95 373.90 371.18 374.96   C 376.33 376.02 379.14 380.59 377.28 385.64   C 373.50 395.94 358.27 390.90 361.84 379.74   Z"/>
<circle fill="#454544" cx="245.69" cy="437.31" r="8.30"/>
</svg>