<?xml version="1.0" standalone="no"?>
<!DOCTYPE svg PUBLIC "-//W3C//DTD SVG 1.1//EN" "http://www.w3.org/Graphics/SVG/1.1/DTD/svg11.dtd">
<svg xmlns="http://www.w3.org/2000/svg" version="1.1" viewBox="0.00 0.00 500.00 500.00" width="500" height="500">
<g stroke-width="2.00" fill="none" stroke-linecap="butt">
<path stroke="#a2a2a2" vector-effect="non-scaling-stroke" d="   M 411.12 40.11   Q 391.49 42.51 371.95 49.71   C 363.24 52.91 353.40 58.48 346.84 66.27   C 342.68 71.22 340.90 76.92 340.79 83.00   C 340.55 96.77 341.99 109.78 346.58 122.55   Q 350.45 133.30 351.40 135.33   Q 370.02 174.89 380.56 216.19   Q 386.04 237.66 387.22 256.76   Q 387.81 266.33 386.08 277.81   C 380.46 315.11 362.78 352.87 334.94 377.59   Q 313.74 396.42 287.10 404.80   Q 272.14 409.50 250.63 411.30   Q 246.27 411.66 241.94 411.36   C 198.76 408.37 158.47 383.17 136.14 346.43   C 125.48 328.88 119.92 310.74 116.85 290.06   Q 114.43 273.68 116.83 254.92   Q 119.17 236.73 124.56 220.51   Q 130.39 203.00 137.86 185.84   C 145.40 168.52 152.27 150.18 157.03 130.68   Q 161.50 112.37 164.64 94.62   C 167.51 78.45 167.87 57.74 150.43 48.79   Q 139.64 43.25 128.51 41.61   Q 113.77 39.43 99.92 39.47   A 1.26 1.25 2.3 0 0 98.68 40.61   L 94.12 88.17   A 0.94 0.93 -78.4 0 0 94.76 89.15   C 97.02 89.87 100.06 90.42 102.33 91.61   Q 114.24 97.83 113.09 112.57   Q 112.29 122.76 107.79 132.30   C 101.21 146.24 94.71 158.68 88.53 171.26   Q 86.37 175.64 84.49 179.65   Q 77.01 195.56 74.10 202.98   C 69.42 214.93 65.62 227.80 63.46 238.97   C 58.67 263.68 60.53 289.34 66.20 315.28   C 79.96 378.33 116.65 435.72 179.75 457.97   Q 192.99 462.64 200.08 464.16   Q 215.28 467.43 231.92 469.17   C 240.73 470.09 251.77 470.35 259.31 469.56   C 274.42 467.98 289.09 465.66 303.32 461.33   Q 327.37 454.01 347.00 442.49   Q 398.93 412.05 423.33 355.06   Q 430.68 337.88 435.16 318.47   Q 440.12 296.95 441.66 276.07   Q 443.98 244.72 436.14 210.97   C 432.53 195.44 426.18 179.07 419.57 165.66   Q 413.96 154.29 404.53 133.54   Q 402.13 128.26 400.63 123.50   C 397.79 114.53 395.66 106.08 400.45 97.76   C 403.13 93.11 409.38 89.59 414.33 88.01   A 0.85 0.83 85.2 0 0 414.91 87.31   Q 415.10 85.82 415.00 84.25   C 414.03 69.12 414.23 56.23 412.37 41.08   A 1.12 1.12 0.0 0 0 411.12 40.11"/>
<path stroke="#a2a2a2" vector-effect="non-scaling-stroke" d="   M 145.77 122.08   A 8.30 8.30 0.0 0 0 137.47 113.78   A 8.30 8.30 0.0 0 0 129.17 122.08   A 8.30 8.30 0.0 0 0 137.47 130.38   A 8.30 8.30 0.0 0 0 145.77 122.08"/>
<path stroke="#a2a2a2" vector-effect="non-scaling-stroke" d="   M 379.93 123.85   A 8.25 8.25 0.0 0 0 371.68 115.60   A 8.25 8.25 0.0 0 0 363.43 123.85   A 8.25 8.25 0.0 0 0 371.68 132.10   A 8.25 8.25 0.0 0 0 379.93 123.85"/>
<path stroke="#a2a2a2" vector-effect="non-scaling-stroke" d="   M 103.54 272.21   A 8.31 8.31 0.0 0 0 95.23 263.90   A 8.31 8.31 0.0 0 0 86.92 272.21   A 8.31 8.31 0.0 0 0 95.23 280.52   A 8.31 8.31 0.0 0 0 103.54 272.21"/>
<path stroke="#a2a2a2" vector-effect="non-scaling-stroke" d="   M 418.39 274.92   A 8.32 8.32 0.0 0 0 410.07 266.60   A 8.32 8.32 0.0 0 0 401.75 274.92   A 8.32 8.32 0.0 0 0 410.07 283.24   A 8.32 8.32 0.0 0 0 418.39 274.92"/>
<path stroke="#a2a2a2" vector-effect="non-scaling-stroke" d="   M 138.23 382.97   A 8.28 8.28 0.0 0 0 129.95 374.69   A 8.28 8.28 0.0 0 0 121.67 382.97   A 8.28 8.28 0.0 0 0 129.95 391.25   A 8.28 8.28 0.0 0 0 138.23 382.97"/>
<path stroke="#a2a2a2" vector-effect="non-scaling-stroke" d="   M 377.88 382.95   A 8.27 8.27 0.0 0 0 369.61 374.68   A 8.27 8.27 0.0 0 0 361.34 382.95   A 8.27 8.27 0.0 0 0 369.61 391.22   A 8.27 8.27 0.0 0 0 377.88 382.95"/>
<path stroke="#a2a2a2" vector-effect="non-scaling-stroke" d="   M 254.05 437.23   A 8.28 8.28 0.0 0 0 245.77 428.95   A 8.28 8.28 0.0 0 0 237.49 437.23   A 8.28 8.28 0.0 0 0 245.77 445.51   A 8.28 8.28 0.0 0 0 254.05 437.23"/>
</g>
<path fill="#454544" d="   M 415.94 30.23   C 418.50 29.95 419.96 32.06 420.42 34.40   Q 421.70 40.88 422.20 48.50   Q 424.24 79.35 424.12 92.52   C 424.11 94.29 422.51 95.53 420.70 95.89   Q 416.27 96.78 412.08 99.02   C 403.65 103.53 407.37 114.65 409.62 121.51   Q 410.88 125.35 412.52 128.98   Q 420.09 145.77 428.98 164.26   Q 456.19 220.88 450.21 283.74   C 446.66 321.05 435.47 358.94 415.11 389.97   Q 386.23 434.02 338.43 457.42   C 306.64 472.98 267.60 481.65 231.54 478.32   Q 207.24 476.08 187.37 470.13   Q 130.22 453.00 95.32 405.19   C 72.29 373.64 59.01 335.12 53.41 296.23   Q 50.12 273.45 52.15 253.20   C 54.81 226.71 63.74 201.30 75.45 177.16   Q 81.06 165.58 92.79 142.54   C 97.09 134.10 110.64 108.76 100.28 101.03   C 97.17 98.71 93.03 98.11 89.13 98.04   C 86.19 97.99 83.98 96.47 84.28 93.50   Q 89.63 40.48 90.17 34.97   Q 90.65 30.16 95.09 30.13   Q 106.69 30.06 119.50 31.17   C 136.06 32.62 154.68 37.08 165.73 49.46   C 175.75 60.67 176.56 77.84 174.22 92.78   C 172.17 105.84 169.19 119.04 166.16 131.94   Q 161.22 152.98 152.61 173.89   C 142.51 198.42 132.82 219.45 127.77 244.51   C 120.91 278.52 126.92 314.12 145.02 343.47   C 161.47 370.14 188.25 389.42 218.38 398.11   Q 236.30 403.27 254.73 401.73   Q 298.94 398.02 329.27 370.45   C 354.10 347.87 369.87 315.35 376.17 281.94   C 380.07 261.22 377.34 241.00 372.13 220.35   Q 364.17 188.84 353.15 162.30   Q 352.90 161.70 341.12 134.16   Q 329.74 107.56 331.96 78.73   C 333.70 56.05 359.56 43.56 378.60 37.80   Q 396.55 32.37 415.94 30.23   Z   M 411.12 40.11   Q 391.49 42.51 371.95 49.71   C 363.24 52.91 353.40 58.48 346.84 66.27   C 342.68 71.22 340.90 76.92 340.79 83.00   C 340.55 96.77 341.99 109.78 346.58 122.55   Q 350.45 133.30 351.40 135.33   Q 370.02 174.89 380.56 216.19   Q 386.04 237.66 387.22 256.76   Q 387.81 266.33 386.08 277.81   C 380.46 315.11 362.78 352.87 334.94 377.59   Q 313.74 396.42 287.10 404.80   Q 272.14 409.50 250.63 411.30   Q 246.27 411.66 241.94 411.36   C 198.76 408.37 158.47 383.17 136.14 346.43   C 125.48 328.88 119.92 310.74 116.85 290.06   Q 114.43 273.68 116.83 254.92   Q 119.17 236.73 124.56 220.51   Q 130.39 203.00 137.86 185.84   C 145.40 168.52 152.27 150.18 157.03 130.68   Q 161.50 112.37 164.64 94.62   C 167.51 78.45 167.87 57.74 150.43 48.79   Q 139.64 43.25 128.51 41.61   Q 113.77 39.43 99.92 39.47   A 1.26 1.25 2.3 0 0 98.68 40.61   L 94.12 88.17   A 0.94 0.93 -78.4 0 0 94.76 89.15   C 97.02 89.87 100.06 90.42 102.33 91.61   Q 114.24 97.83 113.09 112.57   Q 112.29 122.76 107.79 132.30   C 101.21 146.24 94.71 158.68 88.53 171.26   Q 86.37 175.64 84.49 179.65   Q 77.01 195.56 74.10 202.98   C 69.42 214.93 65.62 227.80 63.46 238.97   C 58.67 263.68 60.53 289.34 66.20 315.28   C 79.96 378.33 116.65 435.72 179.75 457.97   Q 192.99 462.64 200.08 464.16   Q 215.28 467.43 231.92 469.17   C 240.73 470.09 251.77 470.35 259.31 469.56   C 274.42 467.98 289.09 465.66 303.32 461.33   Q 327.37 454.01 347.00 442.49   Q 398.93 412.05 423.33 355.06   Q 430.68 337.88 435.16 318.47   Q 440.12 296.95 441.66 276.07   Q 443.98 244.72 436.14 210.97   C 432.53 195.44 426.18 179.07 419.57 165.66   Q 413.96 154.29 404.53 133.54   Q 402.13 128.26 400.63 123.50   C 397.79 114.53 395.66 106.08 400.45 97.76   C 403.13 93.11 409.38 89.59 414.33 88.01   A 0.85 0.83 85.2 0 0 414.91 87.31   Q 415.10 85.82 415.00 84.25   C 414.03 69.12 414.23 56.23 412.37 41.08   A 1.12 1.12 0.0 0 0 411.12 40.11   Z"/>
<path fill="#ffffff" d="   M 411.12 40.11   A 1.12 1.12 0.0 0 1 412.37 41.08   C 414.23 56.23 414.03 69.12 415.00 84.25   Q 415.10 85.82 414.91 87.31   A 0.85 0.83 85.2 0 1 414.33 88.01   C 409.38 89.59 403.13 93.11 400.45 97.76   C 395.66 106.08 397.79 114.53 400.63 123.50   Q 402.13 128.26 404.53 133.54   Q 413.96 154.29 419.57 165.66   C 426.18 179.07 432.53 195.44 436.14 210.97   Q 443.98 244.72 441.66 276.07   Q 440.12 296.95 435.16 318.47   Q 430.68 337.88 423.33 355.06   Q 398.93 412.05 347.00 442.49   Q 327.37 454.01 303.32 461.33   C 289.09 465.66 274.42 467.98 259.31 469.56   C 251.77 470.35 240.73 470.09 231.92 469.17   Q 215.28 467.43 200.08 464.16   Q 192.99 462.64 179.75 457.97   C 116.65 435.72 79.96 378.33 66.20 315.28   C 60.53 289.34 58.67 263.68 63.46 238.97   C 65.62 227.80 69.42 214.93 74.10 202.98   Q 77.01 195.56 84.49 179.65   Q 86.37 175.64 88.53 171.26   C 94.71 158.68 101.21 146.24 107.79 132.30   Q 112.29 122.76 113.09 112.57   Q 114.24 97.83 102.33 91.61   C 100.06 90.42 97.02 89.87 94.76 89.15   A 0.94 0.93 -78.4 0 1 94.12 88.17   L 98.68 40.61   A 1.26 1.25 2.3 0 1 99.92 39.47   Q 113.77 39.43 128.51 41.61   Q 139.64 43.25 150.43 48.79   C 167.87 57.74 167.51 78.45 164.64 94.62   Q 161.50 112.37 157.03 130.68   C 152.27 150.18 145.40 168.52 137.86 185.84   Q 130.39 203.00 124.56 220.51   Q 119.17 236.73 116.83 254.92   Q 114.43 273.68 116.85 290.06   C 119.92 310.74 125.48 328.88 136.14 346.43   C 158.47 383.17 198.76 408.37 241.94 411.36   Q 246.27 411.66 250.63 411.30   Q 272.14 409.50 287.10 404.80   Q 313.74 396.42 334.94 377.59   C 362.78 352.87 380.46 315.11 386.08 277.81   Q 387.81 266.33 387.22 256.76   Q 386.04 237.66 380.56 216.19   Q 370.02 174.89 351.40 135.33   Q 350.45 133.30 346.58 122.55   C 341.99 109.78 340.55 96.77 340.79 83.00   C 340.90 76.92 342.68 71.22 346.84 66.27   C 353.40 58.48 363.24 52.91 371.95 49.71   Q 391.49 42.51 411.12 40.11   Z   M 145.77 122.08   A 8.30 8.30 0.0 0 0 137.47 113.78   A 8.30 8.30 0.0 0 0 129.17 122.08   A 8.30 8.30 0.0 0 0 137.47 130.38   A 8.30 8.30 0.0 0 0 145.77 122.08   Z   M 379.93 123.85   A 8.25 8.25 0.0 0 0 371.68 115.60   A 8.25 8.25 0.0 0 0 363.43 123.85   A 8.25 8.25 0.0 0 0 371.68 132.10   A 8.25 8.25 0.0 0 0 379.93 123.85   Z   M 103.54 272.21   A 8.31 8.31 0.0 0 0 95.23 263.90   A 8.31 8.31 0.0 0 0 86.92 272.21   A 8.31 8.31 0.0 0 0 95.23 280.52   A 8.31 8.31 0.0 0 0 103.54 272.21   Z   M 418.39 274.92   A 8.32 8.32 0.0 0 0 410.07 266.60   A 8.32 8.32 0.0 0 0 401.75 274.92   A 8.32 8.32 0.0 0 0 410.07 283.24   A 8.32 8.32 0.0 0 0 418.39 274.92   Z   M 138.23 382.97   A 8.28 8.28 0.0 0 0 129.95 374.69   A 8.28 8.28 0.0 0 0 121.67 382.97   A 8.28 8.28 0.0 0 0 129.95 391.25   A 8.28 8.28 0.0 0 0 138.23 382.97   Z   M 377.88 382.95   A 8.27 8.27 0.0 0 0 369.61 374.68   A 8.27 8.27 0.0 0 0 361.34 382.95   A 8.27 8.27 0.0 0 0 369.61 391.22   A 8.27 8.27 0.0 0 0 377.88 382.95   Z   M 254.05 437.23   A 8.28 8.28 0.0 0 0 245.77 428.95   A 8.28 8.28 0.0 0 0 237.49 437.23   A 8.28 8.28 0.0 0 0 245.77 445.51   A 8.28 8.28 0.0 0 0 254.05 437.23   Z"/>
<circle fill="#454544" cx="137.47" cy="122.08" r="8.30"/>
<circle fill="#454544" cx="371.68" cy="123.85" r="8.25"/>
<circle fill="#454544" cx="95.23" cy="272.21" r="8.31"/>
<circle fill="#454544" cx="410.07" cy="274.92" r="8.32"/>
<circle fill="#454544" cx="129.95" cy="382.97" r="8.28"/>
<circle fill="#454544" cx="369.61" cy="382.95" r="8.27"/>
<circle fill="#454544" cx="245.77" cy="437.23" r="8.28"/>
</svg>