<?xml version="1.0" standalone="no"?>
<!DOCTYPE svg PUBLIC "-//W3C//DTD SVG 1.1//EN" "http://www.w3.org/Graphics/SVG/1.1/DTD/svg11.dtd">
<svg xmlns="http://www.w3.org/2000/svg" version="1.1" viewBox="0.00 0.00 500.00 500.00" width="500" height="500">
<g stroke-width="2.00" fill="none" stroke-linecap="butt">
<path stroke="#ec8980" vector-effect="non-scaling-stroke" d="   M 93.81 89.56   Q 96.92 90.27 98.16 90.61   C 110.10 93.87 114.37 104.82 112.16 116.21   Q 110.07 126.91 104.68 137.66   Q 88.04 170.79 83.33 180.56   C 67.57 213.16 57.18 247.03 60.68 283.80   C 64.71 326.05 78.78 369.46 104.45 403.07   Q 140.72 450.54 199.52 464.46   Q 224.52 470.38 246.04 470.32   Q 297.13 470.17 342.90 445.34   Q 398.27 415.30 424.13 354.64   Q 432.71 334.52 437.53 310.08   Q 442.26 286.08 442.66 266.24   C 443.16 241.31 439.38 214.91 431.04 191.70   C 423.50 170.70 410.14 145.87 403.98 130.80   C 397.37 114.64 392.11 95.26 414.81 88.62   A 1.07 1.06 81.2 0 0 415.57 87.57   Q 414.98 68.34 413.50 47.25   Q 413.26 43.97 412.75 40.19   A 0.96 0.95 -7.6 0 0 411.68 39.38   Q 390.70 42.21 372.57 48.82   C 362.23 52.59 351.11 59.04 344.65 68.16   Q 340.47 74.08 340.18 82.50   Q 339.28 108.66 349.46 132.04   Q 359.26 154.55 359.46 155.02   Q 371.08 182.91 378.75 211.50   C 383.05 227.54 386.63 244.79 386.77 261.71   Q 386.85 271.37 384.55 283.67   C 378.22 317.46 362.13 351.36 337.44 374.59   Q 301.79 408.13 249.75 410.60   Q 234.09 411.34 217.12 406.62   C 171.27 393.85 135.89 359.61 122.46 313.76   C 117.57 297.06 115.24 279.12 116.73 261.50   C 118.35 242.25 123.12 224.42 130.25 205.99   C 137.79 186.50 149.88 161.16 155.79 138.05   Q 159.95 121.76 163.77 103.02   Q 165.58 94.16 166.35 84.78   C 167.37 72.32 165.76 59.12 155.06 51.17   Q 146.52 44.84 134.90 42.35   Q 117.96 38.73 99.07 38.85   A 0.77 0.76 -87.1 0 0 98.31 39.54   L 93.36 88.92   A 0.59 0.59 0.0 0 0 93.81 89.56"/>
<path stroke="#ec8980" vector-effect="non-scaling-stroke" d="   M 145.09 122.07   A 7.64 7.64 0.0 0 0 137.45 114.43   A 7.64 7.64 0.0 0 0 129.81 122.07   A 7.64 7.64 0.0 0 0 137.45 129.71   A 7.64 7.64 0.0 0 0 145.09 122.07"/>
<path stroke="#ec8980" vector-effect="non-scaling-stroke" d="   M 379.32 123.85   A 7.64 7.64 0.0 0 0 371.68 116.21   A 7.64 7.64 0.0 0 0 364.04 123.85   A 7.64 7.64 0.0 0 0 371.68 131.49   A 7.64 7.64 0.0 0 0 379.32 123.85"/>
<path stroke="#ec8980" vector-effect="non-scaling-stroke" d="   M 102.88 272.17   A 7.65 7.65 0.0 0 0 95.23 264.52   A 7.65 7.65 0.0 0 0 87.58 272.17   A 7.65 7.65 0.0 0 0 95.23 279.82   A 7.65 7.65 0.0 0 0 102.88 272.17"/>
<path stroke="#ec8980" vector-effect="non-scaling-stroke" d="   M 417.70 274.97   A 7.66 7.66 0.0 0 0 410.04 267.31   A 7.66 7.66 0.0 0 0 402.38 274.97   A 7.66 7.66 0.0 0 0 410.04 282.63   A 7.66 7.66 0.0 0 0 417.70 274.97"/>
<path stroke="#ec8980" vector-effect="non-scaling-stroke" d="   M 137.66 382.97   A 7.68 7.68 0.0 0 0 129.98 375.29   A 7.68 7.68 0.0 0 0 122.30 382.97   A 7.68 7.68 0.0 0 0 129.98 390.65   A 7.68 7.68 0.0 0 0 137.66 382.97"/>
<path stroke="#ec8980" vector-effect="non-scaling-stroke" d="   M 377.28 382.94   A 7.67 7.67 0.0 0 0 369.61 375.27   A 7.67 7.67 0.0 0 0 361.94 382.94   A 7.67 7.67 0.0 0 0 369.61 390.61   A 7.67 7.67 0.0 0 0 377.28 382.94"/>
<path stroke="#ec8980" vector-effect="non-scaling-stroke" d="   M 253.42 437.21   A 7.64 7.64 0.0 0 0 245.78 429.57   A 7.64 7.64 0.0 0 0 238.14 437.21   A 7.64 7.64 0.0 0 0 245.78 444.85   A 7.64 7.64 0.0 0 0 253.42 437.21"/>
</g>
<path fill="#d81300" d="   M 423.86 93.29   A 3.50 3.50 0.0 0 1 421.27 95.78   Q 416.37 96.92 413.21 98.39   C 406.62 101.44 406.39 106.52 407.32 113.22   Q 407.87 117.09 410.79 124.72   Q 414.39 134.13 427.19 160.34   Q 441.07 188.79 447.00 217.50   Q 449.72 230.65 450.85 248.59   Q 451.86 264.58 450.53 279.89   Q 446.92 321.43 433.01 355.51   Q 405.33 423.27 340.79 456.23   C 307.38 473.30 265.32 482.27 227.69 478.00   C 203.21 475.22 180.08 469.66 158.31 458.78   Q 111.62 435.45 84.12 387.99   C 67.01 358.46 56.74 324.45 52.69 290.75   Q 48.37 254.92 58.59 220.31   C 64.06 201.81 71.74 183.81 80.20 167.42   Q 92.36 143.86 99.41 128.68   C 102.48 122.08 105.81 111.20 103.03 104.65   C 100.79 99.40 95.24 98.29 89.53 98.06   C 86.09 97.92 83.97 96.72 84.35 93.02   Q 87.92 58.13 90.22 34.73   C 90.70 29.74 94.66 30.06 99.14 30.12   Q 112.82 30.29 126.01 31.96   C 139.24 33.63 153.54 37.94 163.39 47.02   C 178.74 61.17 176.11 85.21 172.36 103.57   C 166.82 130.73 161.79 151.97 151.90 175.63   Q 145.12 191.85 138.53 208.25   Q 126.21 238.91 124.92 268.99   Q 124.38 281.43 127.58 298.49   Q 132.41 324.30 146.79 346.22   Q 165.79 375.16 199.92 391.32   Q 227.55 404.39 256.95 401.53   Q 298.14 397.51 327.14 372.36   C 355.52 347.76 372.85 310.06 377.66 272.13   Q 378.58 264.83 377.77 254.00   C 376.92 242.71 374.78 230.79 371.79 219.04   Q 361.93 180.24 344.79 142.96   C 341.75 136.35 339.30 129.49 337.33 123.95   Q 331.33 107.01 331.67 83.74   Q 331.85 72.17 336.74 64.57   C 345.48 51.00 361.78 43.08 377.26 38.22   Q 394.69 32.74 414.78 30.37   C 416.95 30.11 418.93 30.35 419.76 32.63   Q 420.85 35.63 420.93 36.38   Q 423.33 58.79 424.01 85.53   C 424.08 88.20 424.37 91.42 423.86 93.29   Z   M 93.81 89.56   Q 96.92 90.27 98.16 90.61   C 110.10 93.87 114.37 104.82 112.16 116.21   Q 110.07 126.91 104.68 137.66   Q 88.04 170.79 83.33 180.56   C 67.57 213.16 57.18 247.03 60.68 283.80   C 64.71 326.05 78.78 369.46 104.45 403.07   Q 140.72 450.54 199.52 464.46   Q 224.52 470.38 246.04 470.32   Q 297.13 470.17 342.90 445.34   Q 398.27 415.30 424.13 354.64   Q 432.71 334.52 437.53 310.08   Q 442.26 286.08 442.66 266.24   C 443.16 241.31 439.38 214.91 431.04 191.70   C 423.50 170.70 410.14 145.87 403.98 130.80   C 397.37 114.64 392.11 95.26 414.81 88.62   A 1.07 1.06 81.2 0 0 415.57 87.57   Q 414.98 68.34 413.50 47.25   Q 413.26 43.97 412.75 40.19   A 0.96 0.95 -7.6 0 0 411.68 39.38   Q 390.70 42.21 372.57 48.82   C 362.23 52.59 351.11 59.04 344.65 68.16   Q 340.47 74.08 340.18 82.50   Q 339.28 108.66 349.46 132.04   Q 359.26 154.55 359.46 155.02   Q 371.08 182.91 378.75 211.50   C 383.05 227.54 386.63 244.79 386.77 261.71   Q 386.85 271.37 384.55 283.67   C 378.22 317.46 362.13 351.36 337.44 374.59   Q 301.79 408.13 249.75 410.60   Q 234.09 411.34 217.12 406.62   C 171.27 393.85 135.89 359.61 122.46 313.76   C 117.57 297.06 115.24 279.12 116.73 261.50   C 118.35 242.25 123.12 224.42 130.25 205.99   C 137.79 186.50 149.88 161.16 155.79 138.05   Q 159.95 121.76 163.77 103.02   Q 165.58 94.16 166.35 84.78   C 167.37 72.32 165.76 59.12 155.06 51.17   Q 146.52 44.84 134.90 42.35   Q 117.96 38.73 99.07 38.85   A 0.77 0.76 -87.1 0 0 98.31 39.54   L 93.36 88.92   A 0.59 0.59 0.0 0 0 93.81 89.56   Z"/>
<path fill="#ffffff" d="   M 93.81 89.56   A 0.59 0.59 0.0 0 1 93.36 88.92   L 98.31 39.54   A 0.77 0.76 -87.1 0 1 99.07 38.85   Q 117.96 38.73 134.90 42.35   Q 146.52 44.84 155.06 51.17   C 165.76 59.12 167.37 72.32 166.35 84.78   Q 165.58 94.16 163.77 103.02   Q 159.95 121.76 155.79 138.05   C 149.88 161.16 137.79 186.50 130.25 205.99   C 123.12 224.42 118.35 242.25 116.73 261.50   C 115.24 279.12 117.57 297.06 122.46 313.76   C 135.89 359.61 171.27 393.85 217.12 406.62   Q 234.09 411.34 249.75 410.60   Q 301.79 408.13 337.44 374.59   C 362.13 351.36 378.22 317.46 384.55 283.67   Q 386.85 271.37 386.77 261.71   C 386.63 244.79 383.05 227.54 378.75 211.50   Q 371.08 182.91 359.46 155.02   Q 359.26 154.55 349.46 132.04   Q 339.28 108.66 340.18 82.50   Q 340.47 74.08 344.65 68.16   C 351.11 59.04 362.23 52.59 372.57 48.82   Q 390.70 42.21 411.68 39.38   A 0.96 0.95 -7.6 0 1 412.75 40.19   Q 413.26 43.97 413.50 47.25   Q 414.98 68.34 415.57 87.57   A 1.07 1.06 81.2 0 1 414.81 88.62   C 392.11 95.26 397.37 114.64 403.98 130.80   C 410.14 145.87 423.50 170.70 431.04 191.70   C 439.38 214.91 443.16 241.31 442.66 266.24   Q 442.26 286.08 437.53 310.08   Q 432.71 334.52 424.13 354.64   Q 398.27 415.30 342.90 445.34   Q 297.13 470.17 246.04 470.32   Q 224.52 470.38 199.52 464.46   Q 140.72 450.54 104.45 403.07   C 78.78 369.46 64.71 326.05 60.68 283.80   C 57.18 247.03 67.57 213.16 83.33 180.56   Q 88.04 170.79 104.68 137.66   Q 110.07 126.91 112.16 116.21   C 114.37 104.82 110.10 93.87 98.16 90.61   Q 96.92 90.27 93.81 89.56   Z   M 145.09 122.07   A 7.64 7.64 0.0 0 0 137.45 114.43   A 7.64 7.64 0.0 0 0 129.81 122.07   A 7.64 7.64 0.0 0 0 137.45 129.71   A 7.64 7.64 0.0 0 0 145.09 122.07   Z   M 379.32 123.85   A 7.64 7.64 0.0 0 0 371.68 116.21   A 7.64 7.64 0.0 0 0 364.04 123.85   A 7.64 7.64 0.0 0 0 371.68 131.49   A 7.64 7.64 0.0 0 0 379.32 123.85   Z   M 102.88 272.17   A 7.65 7.65 0.0 0 0 95.23 264.52   A 7.65 7.65 0.0 0 0 87.58 272.17   A 7.65 7.65 0.0 0 0 95.23 279.82   A 7.65 7.65 0.0 0 0 102.88 272.17   Z   M 417.70 274.97   A 7.66 7.66 0.0 0 0 410.04 267.31   A 7.66 7.66 0.0 0 0 402.38 274.97   A 7.66 7.66 0.0 0 0 410.04 282.63   A 7.66 7.66 0.0 0 0 417.70 274.97   Z   M 137.66 382.97   A 7.68 7.68 0.0 0 0 129.98 375.29   A 7.68 7.68 0.0 0 0 122.30 382.97   A 7.68 7.68 0.0 0 0 129.98 390.65   A 7.68 7.68 0.0 0 0 137.66 382.97   Z   M 377.28 382.94   A 7.67 7.67 0.0 0 0 369.61 375.27   A 7.67 7.67 0.0 0 0 361.94 382.94   A 7.67 7.67 0.0 0 0 369.61 390.61   A 7.67 7.67 0.0 0 0 377.28 382.94   Z   M 253.42 437.21   A 7.64 7.64 0.0 0 0 245.78 429.57   A 7.64 7.64 0.0 0 0 238.14 437.21   A 7.64 7.64 0.0 0 0 245.78 444.85   A 7.64 7.64 0.0 0 0 253.42 437.21   Z"/>
<circle fill="#d81300" cx="137.45" cy="122.07" r="7.64"/>
<circle fill="#d81300" cx="371.68" cy="123.85" r="7.64"/>
<circle fill="#d81300" cx="95.23" cy="272.17" r="7.65"/>
<circle fill="#d81300" cx="410.04" cy="274.97" r="7.66"/>
<circle fill="#d81300" cx="129.98" cy="382.97" r="7.68"/>
<circle fill="#d81300" cx="369.61" cy="382.94" r="7.67"/>
<circle fill="#d81300" cx="245.78" cy="437.21" r="7.64"/>
</svg>